<svg xmlns="http://www.w3.org/2000/svg" viewBox="0 0 275 64">
  <title>Logoipsum</title>
  <path fill="currentColor" d="M84,42.33h19.12v-5.76h-12.33V14.87h-6.8v27.46Zm30.45-3.84c-2.73,0-4.15-2.38-4.15-5.95s1.42-5.99,4.15-5.99,4.19,2.42,4.19,5.99-1.46,5.95-4.19,5.95Zm.04,4.45c6.34,0,10.48-4.49,10.48-10.41s-4.15-10.41-10.48-10.41-10.52,4.49-10.52,10.41,4.22,10.41,10.52,10.41Zm21.45,6.18c2.92,0,5.49-.65,7.22-2.19,1.57-1.42,2.61-3.57,2.61-6.53V22.67h-5.99v2.11h-.08c-1.15-1.65-2.92-2.69-5.53-2.69-4.88,0-8.26,4.07-8.26,9.83s4.11,9.33,8.52,9.33c2.38,0,3.88-.96,5.03-2.27h.15v1.96c0,2.38-1.11,3.76-3.76,3.76-2.07,0-3.11-.88-3.46-1.92h-6.07c.61,4.11,4.19,6.34,9.6,6.34Zm-.04-12.52c-2.34,0-3.88-1.92-3.88-4.88s1.54-4.92,3.88-4.92c2.61,0,3.99,2.23,3.99,4.88s-1.27,4.92-3.99,4.92Zm22.19,1.88c-2.73,0-4.15-2.38-4.15-5.95s1.42-5.99,4.15-5.99,4.19,2.42,4.19,5.99-1.46,5.95-4.19,5.95Zm.04,4.45c6.34,0,10.48-4.49,10.48-10.41s-4.15-10.41-10.48-10.41-10.52,4.49-10.52,10.41,4.22,10.41,10.52,10.41Zm12.31-.61h6.26V22.67h-6.26v19.66Zm0-22.39h6.26v-5.07h-6.26v5.07Zm8.97,28.88h6.26v-8.52h.08c1.23,1.65,3.03,2.65,5.57,2.65,5.15,0,8.56-4.07,8.56-10.44,0-5.91-3.19-10.41-8.41-10.41-2.69,0-4.61,1.19-5.95,2.96h-.12v-2.38h-5.99v26.15Zm10.29-10.71c-2.69,0-4.22-2.19-4.22-5.38s1.38-5.61,4.11-5.61,3.96,2.23,3.96,5.61-1.46,5.38-3.84,5.38Zm20.37,4.84c5.15,0,8.95-2.23,8.95-6.53,0-5.03-4.07-5.91-7.53-6.49-2.5-.46-4.72-.65-4.72-2.04,0-1.23,1.19-1.8,2.73-1.8,1.73,0,2.92,.54,3.15,2.3h5.76c-.31-3.88-3.3-6.3-8.87-6.3-4.65,0-8.49,2.15-8.49,6.3,0,4.61,3.65,5.53,7.07,6.11,2.61,.46,4.99,.65,4.99,2.42,0,1.27-1.19,1.96-3.07,1.96-2.07,0-3.38-.96-3.61-2.92h-5.91c.19,4.34,3.8,6.99,9.56,6.99h0Zm17.45-.04c2.73,0,4.45-1.08,5.88-3h.12v2.42h5.99V22.67h-6.26v10.98c0,2.34-1.31,3.96-3.46,3.96-2,0-2.96-1.19-2.96-3.34v-11.6h-6.22v12.9c0,4.38,2.38,7.33,6.91,7.33Zm14.7-.58h6.26v-11.02c0-2.34,1.15-3.99,3.11-3.99s2.76,1.23,2.76,3.34v11.67h6.26v-11.02c0-2.34,1.11-3.99,3.11-3.99,1.88,0,2.76,1.23,2.76,3.34v11.67h6.26v-12.79c0-4.42-2.23-7.45-6.68-7.45-2.53,0-4.65,1.08-6.18,3.46h-.08c-1-2.11-2.96-3.46-5.53-3.46-2.84,0-4.72,1.34-5.95,3.38h-.12v-2.8h-5.99v19.66Z"/>
  <path fill="#7f57f1" d="M13.68,5.76c-2.29,1.6-4.36,3.49-6.16,5.62,7.34-.68,16.67,.43,27.5,5.85,11.56,5.78,20.88,5.98,27.36,4.73-.58-1.77-1.32-3.48-2.2-5.12-7.42,.78-16.93-.25-28.02-5.8-7.04-3.52-13.24-4.97-18.48-5.28Zm42.17,4.91C49.79,3.87,41.11-.01,32,0,29.21,0,26.52,.36,23.94,1.02c3.49,.95,7.19,2.34,11.09,4.29,8.12,4.06,15.12,5.36,20.82,5.35h0Zm7.92,17.54c-7.83,1.55-18.64,1.23-31.61-5.25-12.12-6.06-21.77-5.98-28.28-4.54-.34,.07-.66,.15-.98,.23-.86,1.87-1.54,3.82-2.02,5.82,.52-.14,1.06-.27,1.62-.4,7.89-1.75,19.05-1.68,32.52,5.06,12.12,6.06,21.77,5.98,28.28,4.54,.22-.05,.44-.1,.66-.15,.08-1.77,.02-3.55-.19-5.32h0Zm-.86,12.07c-7.75,1.36-18.25,.84-30.75-5.41-12.12-6.06-21.77-5.98-28.28-4.54-1.44,.32-2.74,.71-3.89,1.12,0,.18,0,.37,0,.55,0,17.67,14.33,32,32,32,14.81,0,27.27-10.06,30.92-23.72Z"/>
</svg>
