<svg xmlns="http://www.w3.org/2000/svg" viewBox="0 0 64 64">
  <title>Logoipsum</title>
  <path fill="#7f57f1" d="M13.68,5.76c-2.29,1.6-4.36,3.49-6.16,5.62,7.34-.68,16.67,.43,27.5,5.85,11.56,5.78,20.88,5.98,27.36,4.73-.58-1.77-1.32-3.48-2.2-5.12-7.42,.78-16.93-.25-28.02-5.8-7.04-3.52-13.24-4.97-18.48-5.28Zm42.17,4.91C49.79,3.87,41.11-.01,32,0,29.21,0,26.52,.36,23.94,1.02c3.49,.95,7.19,2.34,11.09,4.29,8.12,4.06,15.12,5.36,20.82,5.35h0Zm7.92,17.54c-7.83,1.55-18.64,1.23-31.61-5.25-12.12-6.06-21.77-5.98-28.28-4.54-.34,.07-.66,.15-.98,.23-.86,1.87-1.54,3.82-2.02,5.82,.52-.14,1.06-.27,1.62-.4,7.89-1.75,19.05-1.68,32.52,5.06,12.12,6.06,21.77,5.98,28.28,4.54,.22-.05,.44-.1,.66-.15,.08-1.77,.02-3.55-.19-5.32h0Zm-.86,12.07c-7.75,1.36-18.25,.84-30.75-5.41-12.12-6.06-21.77-5.98-28.28-4.54-1.44,.32-2.74,.71-3.89,1.12,0,.18,0,.37,0,.55,0,17.67,14.33,32,32,32,14.81,0,27.27-10.06,30.92-23.72Z"/>
</svg>
